<svg id="logo" xmlns="http://www.w3.org/2000/svg" width="911.75" height="898.91" viewBox="0 0 911.75 898.91"><defs><linearGradient id="FillColor" x1="0" x2="50%" y1="50%" y2="0"><stop offset="0%" stop-color="#2af598"/><stop offset="100%" stop-color="#009efd"/></linearGradient></defs><path fill="url(#FillColor)" d="M828.52,831.72c-216,259.7-774.46,115.85-765.17-319.5-19-292.76,370.82-602.09,704.81-367.11,44.53,48.2,81.39,32.52,121.28,46.67,28.28,14.3,21.36,42.61,52.36,142.6,31.6,101.09,60.92,133.92-17.45,182.4-28,11.34-46.6-2.34-117.82-25.31-92-29.65-109-22.33-132.66-48-27.26-29.62-14.42-50.13-41.31-80.13C507.2,259.81,336.39,351,290.74,489.72c-7,26.59-20.37,92.15,8.72,162.38,25.72,62.11,71.11,95.23,99.93,115.7C554.85,878.2,781.33,840.41,828.52,831.72Zm50.11-584.95c-15.4,5.93.73,47,16,40.82C910.07,281.66,893.94,240.63,878.63,246.77Zm-152,180.06c-4.34,15.92,35.73,26.64,39.92,10.68C770.9,421.58,730.83,410.86,726.63,426.83Z" transform="translate(-62.68 -62.16)"/></svg>