<svg xmlns="http://www.w3.org/2000/svg" viewBox="0 0 1024 1024"><path d="M803.9424 220.8256a474.4704 474.4704 0 0 1-154.88-33.2288c-80.384-32.768-132.4032-70.0416-132.7616-70.5024L495.7184 102.4l-20.48 14.7456c-0.8192 0.3584-52.48 37.632-132.7616 70.4512a488.96 488.96 0 0 1-154.88 33.1776L153.6 221.184v344.6784C153.6 738.816 375.7056 921.6 495.36 921.6c119.6544 0 342.2208-182.784 342.5792-355.7376v-344.576l-33.9968-0.512zM444.7232 656.384L351.744 577.1776a34.4576 34.4576 0 0 1 44.7488-52.48l40.8576 34.7648c14.336 12.288 35.9424 10.5984 48.2816-3.6864l132.096-151.6544a34.4064 34.4064 0 0 1 52.0192 45.2608l-176.64 203.4176a34.6112 34.6112 0 0 1-48.4352 3.6352z" /></svg>