<svg xmlns="http://www.w3.org/2000/svg" viewBox="0 0 1024 1024"><path d="M1001.472 608.768l-473.088-216.576c-5.12-2.048-10.752-3.584-15.872-3.584s-10.752 1.024-15.872 3.584L22.528 608.768c-13.824 6.656-22.528 19.968-22.528 35.328 0 15.36 8.704 28.672 23.04 35.328l473.088 212.992c10.24 4.608 21.504 4.608 31.744 0l473.088-212.992c14.336-6.144 23.04-19.968 23.04-35.328 0-15.36-8.704-28.672-22.528-35.328z" /><path d="M23.04 435.2l125.952 56.32c12.8 5.632 27.648 0 33.28-12.288 5.632-12.8 0-27.648-12.288-33.28l-103.424-46.08 445.44-203.776 445.952 204.288-102.912 46.08c-12.8 5.632-18.432 20.48-12.288 33.28s20.48 18.432 33.28 12.288L1000.96 435.2c14.336-6.144 23.04-19.968 23.04-35.328 0-15.36-8.704-29.184-22.528-35.328L527.872 148.48c-5.12-2.048-10.752-3.584-15.872-3.584s-10.752 1.024-15.872 3.584L22.528 365.056C8.704 371.2 0 385.024 0 400.384s8.704 28.672 23.04 34.816z" /><path d="M23.04 433.152l125.952 56.32c12.8 5.632 27.648 0 33.28-12.288 5.632-12.8 0-27.648-12.288-33.28l-103.424-46.08 445.44-204.288 445.952 204.288-102.912 46.592c-12.8 5.632-18.432 20.48-12.288 33.28s20.48 18.432 33.28 12.288l125.44-56.832c14.336-6.144 23.04-19.968 23.04-35.328 0-15.36-8.704-29.184-22.528-35.328l-473.088-216.576c-5.12-2.048-10.752-3.584-15.872-3.584s-10.752 1.024-15.872 3.584L22.528 362.496C8.704 369.152 0 382.464 0 397.824c0 15.36 8.704 29.184 23.04 35.328z" /></svg>