<svg xmlns="http://www.w3.org/2000/svg" viewBox="0 0 1024 1024"><path d="M512 885.76a392.2944 392.2944 0 1 1 392.192-392.192A392.6016 392.6016 0 0 1 512 885.76z m0-702.5664A310.3744 310.3744 0 1 0 822.6816 493.568 310.6816 310.6816 0 0 0 512 183.1936z" /><path d="M978.432 263.8848c-22.9376-46.6944-127.2832-36.5568-193.7408-11.3664l29.0816 76.5952c4.3008-1.6384 8.6016-3.1744 12.8-4.5056l-8.704 5.4272c-76.0832 47.0016-187.0848 107.1104-304.64 165.0688S280.2688 604.16 196.7104 636.1088l-2.1504 0.8192-30.72-49.5616C91.136 632.2176 22.4256 674.7136 46.3872 723.1488c9.216 18.8416 26.3168 26.112 48.3328 26.112 34.816 0 81.92-18.0224 131.072-36.5568 87.1424-33.0752 202.0352-84.1728 323.584-144.0768S781.6192 448.7168 860.8768 399.36c72.8064-44.544 141.5168-87.04 117.5552-135.4752zM125.7472 675.0208l24.064-26.624 11.3664 26.624z m739.7376-350.5152a98.304 98.304 0 0 0-18.2272-32.4608 152.1664 152.1664 0 0 1 57.0368-10.24 115.5072 115.5072 0 0 1-38.8096 42.7008z" /></svg>
