<svg xmlns="http://www.w3.org/2000/svg" viewBox="0 0 1024 1024"><path d="M480 19.2L102.4 236.8c-19.2 12.8-32 32-32 57.6v435.2c0 25.6 12.8 44.8 32 57.6l377.6 217.6c19.2 12.8 44.8 12.8 64 0l377.6-217.6c19.2-12.8 32-32 32-57.6V294.4c0-25.6-12.8-44.8-32-57.6L544 19.2c-19.2-12.8-44.8-12.8-64 0zM512 108.8l345.6 198.4v403.2L512 915.2l-345.6-198.4V313.6L512 108.8z m0 326.4l89.6-83.2c19.2-19.2 51.2-19.2 70.4 0 19.2 19.2 19.2 51.2 0 70.4L563.2 524.8V640c0 25.6-19.2 51.2-51.2 51.2-25.6 0-51.2-19.2-51.2-51.2V524.8L358.4 416c-19.2-19.2-19.2-51.2 0-70.4 19.2-19.2 51.2-19.2 70.4 0L512 435.2z" /></svg>