<svg xmlns="http://www.w3.org/2000/svg" viewBox="0 0 1024 1024"><path d="M810.666667 128H213.333333a128 128 0 0 0-128 128v341.333333a128 128 0 0 0 128 128h256v85.333334H298.666667a42.666667 42.666667 0 0 0 0 85.333333h426.666666a42.666667 42.666667 0 0 0 0-85.333333h-170.666666v-85.333334h256a128 128 0 0 0 128-128V256a128 128 0 0 0-128-128z m42.666666 469.333333a42.666667 42.666667 0 0 1-42.666666 42.666667H213.333333a42.666667 42.666667 0 0 1-42.666666-42.666667V256a42.666667 42.666667 0 0 1 42.666666-42.666667h597.333334a42.666667 42.666667 0 0 1 42.666666 42.666667z" /></svg>
