<svg xmlns="http://www.w3.org/2000/svg" viewBox="0 0 1024 1024"><path d="M116.707556 631.751111a56.888889 56.888889 0 1 1 113.777777 0V910.222222h539.704889V512a56.888889 56.888889 0 1 1 113.777778 0v398.222222a113.777778 113.777778 0 0 1-113.777778 113.777778H230.485333a113.777778 113.777778 0 0 1-113.777777-113.777778v-278.471111z" /><path d="M98.929778 573.070222a56.888889 56.888889 0 0 1-84.081778-76.629333L412.700444 59.904A113.777778 113.777778 0 0 1 578.019556 56.888889l429.710222 438.044444a56.888889 56.888889 0 0 1-81.237334 79.644445L496.810667 136.533333 98.929778 573.098667z" /></svg>