<svg viewBox="0 0 1024 1024" xmlns="http://www.w3.org/2000/svg" width="64" height="64"><path d="M950.784 768v72.704q0 15.36-10.24 25.6t-26.624 11.264H110.08q-15.36 0-25.6-11.264t-11.264-25.6V768q0-15.36 11.264-25.6t25.6-11.264h803.84q15.36 0 26.624 11.264t10.24 25.6z m0-292.864v73.728q0 14.336-10.24 25.6t-26.624 10.24H110.08q-15.36 0-25.6-10.24t-11.264-25.6v-73.728q0-14.336 11.264-25.6t25.6-10.24h803.84q15.36 0 26.624 10.24t10.24 25.6z m0-291.84V256q0 14.336-10.24 25.6t-26.624 11.264H110.08q-15.36 0-25.6-11.264T73.216 256V183.296q0-15.36 11.264-26.624t25.6-10.24h803.84q15.36 0 26.624 10.24t10.24 26.624z" /></svg>