<svg xmlns="http://www.w3.org/2000/svg" viewBox="0 0 1024 1024"><path d="M0 0h1024v1024H0z" fill-opacity="0" /><path d="M648.1 330.6l290.5 26.3-86.8-271.6-69 83.2C707.5 114.3 616.5 85.2 523 85.3 281.3 85.3 85.3 276.4 85.3 512c0 88.1 125 88.1 125 0 0-168.3 140-304.7 312.7-304.7 66.1 0 128.8 20 180.9 56.1l-55.8 67.2zM392.9 708.3L102.4 682l86.8 271.6 69-83.2c75.3 54.2 166.3 83.3 259.8 83.2 241.7 0 437.7-191.1 437.7-426.7 0-88.1-125-88.1-125 0 0 168.3-140 304.7-312.7 304.7-66.1 0-128.8-20-180.9-56.1l55.8-67.2z" /><path d="M512 512m-102.4 0a102.4 102.4 0 1 0 204.8 0 102.4 102.4 0 1 0-204.8 0Z" /></svg>