<svg xmlns="http://www.w3.org/2000/svg" viewBox="0 0 1024 1024"><path d="M512 78.869333l21.162667 12.096c69.717333 39.829333 150.677333 65.344 215.466666 80.874667 32.149333 7.722667 59.776 12.864 79.274667 16.064a824.981333 824.981333 0 0 0 28.437333 4.16l1.386667 0.170667 0.32 0.021333L896 196.48v361.728l-0.576 3.477333L853.333333 554.666667c42.090667 7.018667 42.069333 7.04 42.069334 7.061333v0.064l-0.021334 0.106667-0.064 0.32-0.170666 0.917333-0.554667 2.922667c-0.490667 2.410667-1.216 5.76-2.218667 9.898666-2.026667 8.277333-5.226667 19.861333-10.005333 33.856a495.445333 495.445333 0 0 1-51.797333 106.666667c-52.736 82.112-146.069333 174.869333-306.773334 221.098667l-11.797333 3.413333-11.797333-3.413333c-160.704-46.229333-254.037333-138.986667-306.773334-221.12a495.573333 495.573333 0 0 1-51.797333-106.645334 394.709333 394.709333 0 0 1-10.005333-33.856 262.250667 262.250667 0 0 1-2.773334-12.8l-0.192-0.938666-0.042666-0.32-0.021334-0.106667v-0.064c0-0.021333 0-0.042667 42.069334-7.061333l-42.090667 7.018666L128 558.208V196.48l37.952-4.224 0.32-0.021333 1.386667-0.170667 5.824-0.768c5.184-0.704 12.864-1.813333 22.613333-3.413333 19.498667-3.2 47.146667-8.32 79.274667-16.042667 64.768-15.530667 145.749333-41.045333 215.466666-80.874667L512 78.869333z m-298.666667 192.661334v278.976a310.4 310.4 0 0 0 9.045334 31.701333c7.765333 22.72 21.056 54.186667 42.858666 88.149333 42.026667 65.408 116.16 141.013333 246.762667 181.696 130.602667-40.661333 204.757333-116.288 246.762667-181.696a410.304 410.304 0 0 0 42.88-88.149333A309.76 309.76 0 0 0 810.666667 550.506667V271.530667c-20.906667-3.477333-49.28-8.853333-81.962667-16.704C666.154667 239.786667 586.026667 215.338667 512 176.618667c-74.026667 38.72-154.176 63.189333-216.704 78.208-32.704 7.850667-61.077333 13.226667-81.962667 16.704z m517.098667 146.154666L486.933333 661.184 328.746667 503.04l60.352-60.330667 97.834666 97.813334 183.146667-183.146667 60.352 60.330667z" /></svg>