<svg xmlns="http://www.w3.org/2000/svg" viewBox="0 0 1024 1024"><path d="M962.56 972.8L61.44 972.8C30.72 972.8 0 942.08 0 911.36c0-40.96 30.72-61.44 61.44-61.44l51.2-1e-8 235.52-665.59999999c20.47999999-81.92 102.4-143.36 194.56-122.88 61.44000001 10.24 112.64 61.44 122.88 122.88l235.52 665.59999999 51.2 1e-8c40.96 0 71.68 20.47999999 71.68 61.44 0 30.72-30.72 61.44-61.44 61.44zM512 819.2c30.72 0 61.44-20.47999999 61.44-61.44 0-30.72-30.72-61.44-61.44-71.68-30.72 0-61.44 30.72-61.44 61.44 0 40.96 20.47999999 61.44 61.44 71.68z m0-512c-40.96 0-61.44 20.47999999-61.44000001 51.2l1e-8 30.72S481.28 614.4 512 604.15999999c20.48 10.24 61.44-215.04 61.44-215.03999999L573.44000001 358.4c0-40.96-30.72-61.44-61.44000001-51.2z" /></svg>