<svg xmlns="http://www.w3.org/2000/svg" viewBox="0 0 1024 1024"><path d="M1001.627381 394.106435a44.521739 44.521739 0 1 1-88.598261 0V208.228174l-398.914783 398.914783a54.049391 54.049391 0 1 1-76.577391-76.310261l397.579131-397.490087h-182.984348a44.78887 44.78887 0 1 1 0-89.043479h298.740869c1.335652 0 2.226087 0.534261 3.561739 0.623305s1.78087-0.623304 2.671305-0.623305a40.069565 40.069565 0 0 1 27.158261 11.620174c1.157565 0.667826 2.226087 1.513739 3.116521 2.448696 0.890435 0.979478 1.78087 2.092522 2.671305 3.161043a41.360696 41.360696 0 0 1 11.575652 27.158261c0 0.979478-0.445217 1.825391-0.445218 2.80487s0.445217 2.359652 0.445218 3.650783v298.963478zM111.192598 934.956522h712.347826v-400.695652h89.043479v400.695652a89.043478 89.043478 0 0 1-89.043479 89.043478H111.192598a89.043478 89.043478 0 0 1-89.043478-89.043478V222.608696a89.043478 89.043478 0 0 1 89.043478-89.043479h400.695652v89.043479H111.192598v712.347826z" /></svg>