<svg xmlns="http://www.w3.org/2000/svg" viewBox="0 0 1024 1024"><path d="M512 725.333333c47.146667 0 85.333333-38.186667 85.333333-85.333333s-38.186667-85.333333-85.333333-85.333333-85.333333 38.186667-85.333333 85.333333 38.186667 85.333333 85.333333 85.333333z m256-384h-42.666667v-85.333333c0-117.76-95.573333-213.333333-213.333333-213.333333S298.666667 138.24 298.666667 256h81.066666c0-72.96 59.306667-132.266667 132.266667-132.266667 72.96 0 132.266667 59.306667 132.266667 132.266667v85.333333H256c-47.146667 0-85.333333 38.186667-85.333333 85.333334v426.666666c0 47.146667 38.186667 85.333333 85.333333 85.333334h512c47.146667 0 85.333333-38.186667 85.333333-85.333334V426.666667c0-47.146667-38.186667-85.333333-85.333333-85.333334z m0 512H256V426.666667h512v426.666666z" /></svg>